<svg xmlns="http://www.w3.org/2000/svg" width="460" height="473" overflow="visible" version="1.0" viewBox="0 0 459.886 421.887">
  <path fill="#900" d="M172.82 31.74568c0-31.615 25.62-57.241 57.24-57.241s57.25 25.626 57.25 57.241c0 31.612-25.63 57.236-57.25 57.236s-57.24-25.624-57.24-57.236z"/>
  <path fill="#396" d="M299.34 66.20468c21.4 19.074 34.87 46.84 34.87 77.75 0 53.36-40.15 97.35-91.88 103.42v-124.17l57.01-57z"/>
  <path fill="#396" d="M125.92 143.95468c0-30.91 13.47-58.676 34.86-77.75l57.01 57v124.17c-51.73-6.07-91.87-50.06-91.87-103.42z"/>
  <path fill="#069" d="M56.889 146.50468c0-50.619 21.727-96.166 56.361-127.83l31.65 31.643c-25.73 23.247-41.89 56.877-41.89 94.267 0 70.17 56.88 127.04 127.05 127.04 70.18 0 127.06-56.87 127.06-127.04 0-37.39-16.16-71.02-41.89-94.267l31.65-31.641c34.64 31.661 56.36 77.21 56.36 127.83 0 95.63-77.53 173.16-173.18 173.16-95.64 0-173.17-77.53-173.17-173.16h-.001z"/>
  <path fill="#484848" d="M22.898 396.39468L0 343.16468h14.384l11.858 29.47h-.025l13.61-29.47H50l13.575 29.5h.02l11.812-29.5h14.381l-22.86 53.23H61.259l-16.359-33.14h-.005l-16.33 33.14h-5.667z"/>
  <path fill="#484848" d="M96.067 343.16468h13.113v52.44H96.067v-52.44z"/>
  <path fill="#484848" d="M134.27 395.60468h-13.11v-52.44h13.11v24.81h.02l16.73-24.81h14.81l-18.28 25.15 23.79 27.29h-16.63l-20.46-25h.02v25z"/>
  <path fill="#484848" d="M176.91 343.16468h13.11v52.44h-13.11v-52.44z"/>
  <path fill="#484848" d="M215.11 395.60468H202v-52.44h11.8l16.4 18.92h.01l16.37-18.92h11.8v52.44h-13.11v-32.2h.03l-13.97 16.13h-2.25l-13.98-16.13h.01v32.2z"/>
  <path fill="#484848" d="M270.18 395.60468v-52.44h38.63V352.63468h-25.53v11.23h23.96v9.46h-23.96v12.82h25.53v9.46h-38.63z"/>
  <path fill="#484848" d="M318.75 343.16468h19.91c10.76 0 18.84 2.19 24.23 6.57 5.33 4.33 7.99 10.85 7.99 19.56v.11c.03 8.73-2.54 15.28-7.69 19.65-5.16 4.36-12.91 6.55-23.26 6.55h-21.18v-52.44zm13.11 42.78h8.09c5.75 0 10.05-1.38 12.93-4.13 2.87-2.75 4.31-6.89 4.31-12.41s-1.55-9.67-4.63-12.43c-3.09-2.77-7.72-4.15-13.89-4.15h-6.81v33.12z"/>
  <path fill="#484848" d="M380.84 343.16468h13.11v52.44h-13.11v-52.44z"/>
  <path fill="#484848" d="M422.46 342.38468H437.74l22.14 53.22h-14.27l-3.89-9.96h-23.28l-3.86 9.96h-14.27l22.15-53.22zm-.41 33.8h16.06l-8.07-20.54h-.01l-7.98 20.54z"/>
  <g fill="#666" font-family="DejaVu Sans" font-size="44.093" font-weight="bold">
    <path d="M134.11 414.63468h22.37v6.26H142.4v5.99h13.24v6.26H142.4v13.63h-8.29v-32.14"/>
    <path d="M217.96 440.81908H205l-2.05 5.85h-8.33l11.91-32.14h9.88l11.9 32.14h-8.33l-2.02-5.85m-10.9-5.97h8.81l-4.39-12.79-4.42 12.79"/>
    <path d="M176.14 428.86468c1.73 0 2.98-.32 3.72-.97.76-.64 1.14-1.71 1.14-3.18s-.38-2.52-1.14-3.15c-.74-.63-1.99-.94-3.72-.94h-3.49v8.24h3.49m-3.49 5.73v12.16h-8.29v-32.14h12.66c4.24 0 7.34.71 9.3 2.13 1.98 1.42 2.97 3.67 2.97 6.74 0 2.12-.51 3.87-1.55 5.23-1.02 1.36-2.56 2.37-4.63 3.01 1.14.26 2.15.85 3.04 1.77.9.9 1.82 2.28 2.73 4.13l4.5 9.13h-8.82l-3.92-7.99c-.79-1.6-1.6-2.7-2.41-3.29s-1.88-.88-3.23-.88h-2.35"/>
    <path d="M232.64 414.53298h9.26l11.69 22.04v-22.04h7.86v32.14h-9.26l-11.69-22.04v22.04h-7.86v-32.14"/>
    <path d="M295.25 444.99478c-1.52.79-3.1 1.38-4.76 1.78-1.65.41-3.37.61-5.16.61-5.36 0-9.6-1.5-12.73-4.48-3.13-3-4.69-7.06-4.69-12.19 0-5.14 1.56-9.2 4.69-12.18 3.13-3 7.37-4.5 12.73-4.5 1.79 0 3.51.2 5.16.6 1.66.4 3.24 1 4.76 1.79v6.65c-1.53-1.05-3.05-1.82-4.54-2.3-1.49-.49-3.06-.74-4.72-.74-2.95 0-5.28.95-6.97 2.85-1.69 1.89-2.54 4.5-2.54 7.83 0 3.32.85 5.92 2.54 7.82 1.69 1.89 4.02 2.84 6.97 2.84 1.66 0 3.23-.24 4.72-.73s3.01-1.26 4.54-2.31v6.66"/>
    <path d="M302.21 414.53108h22.37v6.26H310.5v5.99h13.24v6.26H310.5v7.37h14.55v6.26h-22.84v-32.14"/>
  </g>
</svg>
